<svg width="25" height="20" viewBox="0 0 25 20" fill="none" xmlns="http://www.w3.org/2000/svg">
<path d="M23.2159 0.0118409C22.8003 -0.0273282 22.3486 0.0303489 21.8948 0.189803C21.3321 0.386481 12.516 3.68241 4.29788 6.75703L1.5824 7.77272C0.530905 8.15163 0 8.76786 0 9.59791C0 10.1791 0.276744 10.9673 1.59705 11.4318L6.18064 13.0638C6.57698 14.1206 7.49755 16.5741 7.72885 17.2264C7.86638 17.6131 8.21377 18.5872 9.09147 18.815C9.27152 18.8695 9.45939 18.8975 9.65069 18.8975C10.2046 18.8975 10.6034 18.6684 10.7984 18.5351L13.7117 16.3453L17.2501 19.2534C17.3864 19.3768 18.1077 20 19.0767 20C20.2857 20 21.2029 19.1055 21.3941 18.2399C21.4979 17.7654 24.9106 2.54015 24.9106 2.54237C25.2169 1.32119 24.6661 0.687697 24.3123 0.417681C24.0091 0.187112 23.6314 0.0510099 23.2159 0.0118409ZM22.388 2.41216C21.9167 4.51228 19.3471 15.9756 18.9571 17.6279L13.785 13.3763L10.2758 16.0176L11.2477 12.6385C11.2477 12.6385 17.9525 6.60683 18.3563 6.2557C18.6814 5.97457 18.7495 5.87602 18.7495 5.77824C18.7495 5.64823 18.6742 5.5547 18.5004 5.5547C18.3441 5.5547 18.1319 5.6878 18.0193 5.75003C16.5898 6.54209 10.5027 9.6241 7.50663 11.1388L3.15992 9.59574L5.26978 8.80793C10.6448 6.7967 20.2175 3.21443 22.388 2.41216Z" fill="white"/>
</svg>
