<svg width="406" height="332" viewBox="0 0 406 332" fill="none" xmlns="http://www.w3.org/2000/svg">
<path d="M401.34 0H4.65953C2.08614 0 0 2.09461 0 4.67845V260.706C0 263.29 2.08614 265.385 4.65953 265.385H401.34C403.914 265.385 406 263.29 406 260.706V4.67845C406 2.09461 403.914 0 401.34 0Z" fill="#11111A"/>
<path d="M401.34 0H4.65953C2.08614 0 0 2.09461 0 4.67845V260.706C0 263.29 2.08614 265.385 4.65953 265.385H401.34C403.914 265.385 406 263.29 406 260.706V4.67845C406 2.09461 403.914 0 401.34 0Z" fill="#11111A"/>
<path d="M0 240.316H406V260.745C406 261.986 405.509 263.176 404.635 264.053C403.761 264.931 402.576 265.424 401.34 265.424H4.65953C3.42374 265.424 2.23857 264.931 1.36474 264.053C0.490913 263.176 0 261.986 0 260.745V240.316Z" fill="#262636"/>
<path d="M233.365 265.424V323.982H172.635V265.424H203C201.753 265.413 200.516 265.652 199.362 266.127C198.208 266.601 197.159 267.301 196.278 268.187C195.396 269.072 194.698 270.125 194.226 271.284C193.753 272.443 193.515 273.684 193.526 274.937V305.112C193.518 306.995 194.067 308.836 195.103 310.405C196.139 311.974 197.615 313.199 199.344 313.925C201.073 314.651 202.978 314.846 204.818 314.485C206.658 314.124 208.349 313.223 209.679 311.896C211.456 310.087 212.459 307.653 212.474 305.112V274.937C212.474 272.414 211.476 269.994 209.699 268.21C207.923 266.426 205.513 265.424 203 265.424H233.365Z" fill="#11111A"/>
<path d="M286.017 320.629H119.983C110.141 320.578 100.374 322.349 91.1714 325.854V331H314.751V325.854C305.577 322.343 295.834 320.572 286.017 320.629Z" fill="#2C2C40"/>
<path d="M314.751 325.854H91.1714V331.078H314.751V325.854Z" fill="#11111A"/>
<rect x="7" y="7" width="392" height="233" fill="#EF6767"/>
</svg>
